<mxfile host="app.diagrams.net" modified="2021-11-01T20:58:06.469Z" agent="5.0 (Macintosh; Intel Mac OS X 10_15_7) AppleWebKit/537.36 (KHTML, like Gecko) Chrome/94.0.4606.81 Safari/537.36" etag="35yJ2BuUENi10lZTfzq7" version="15.6.0" type="github">
  <diagram id="cAb9eKV6FXxrw53DXGPk" name="Page-1">
    <mxGraphModel dx="1430" dy="768" grid="1" gridSize="10" guides="1" tooltips="1" connect="1" arrows="1" fold="1" page="1" pageScale="1" pageWidth="850" pageHeight="1100" math="0" shadow="0">
      <root>
        <mxCell id="0" />
        <mxCell id="1" parent="0" />
        <mxCell id="E3Vo4lR4PM5Q-WoB4YuT-1" value="" style="shape=cylinder3;whiteSpace=wrap;html=1;boundedLbl=1;backgroundOutline=1;size=15;" parent="1" vertex="1">
          <mxGeometry x="630" y="210" width="170" height="280" as="geometry" />
        </mxCell>
        <mxCell id="v9sFLwM3yu87hSWkuqIm-1" value="Database" style="rounded=0;whiteSpace=wrap;html=1;fontStyle=1" vertex="1" parent="1">
          <mxGeometry x="655" y="250" width="120" height="15" as="geometry" />
        </mxCell>
        <mxCell id="v9sFLwM3yu87hSWkuqIm-16" value="" style="rounded=1;whiteSpace=wrap;html=1;" vertex="1" parent="1">
          <mxGeometry x="327.5" y="240" width="220" height="240" as="geometry" />
        </mxCell>
        <mxCell id="v9sFLwM3yu87hSWkuqIm-17" value="&lt;b&gt;Express&lt;/b&gt;" style="rounded=0;whiteSpace=wrap;html=1;" vertex="1" parent="1">
          <mxGeometry x="397.5" y="250" width="80" height="30" as="geometry" />
        </mxCell>
        <mxCell id="v9sFLwM3yu87hSWkuqIm-19" value="Front End/React" style="swimlane;fontStyle=0;childLayout=stackLayout;horizontal=1;startSize=26;horizontalStack=0;resizeParent=1;resizeParentMax=0;resizeLast=0;collapsible=1;marginBottom=0;align=center;fontSize=14;" vertex="1" parent="1">
          <mxGeometry x="60" y="240" width="200" height="216" as="geometry" />
        </mxCell>
        <mxCell id="v9sFLwM3yu87hSWkuqIm-20" value="Home (Why are you here?)&#xa;    " style="text;strokeColor=none;fillColor=none;spacingLeft=4;spacingRight=4;overflow=hidden;rotatable=0;points=[[0,0.5],[1,0.5]];portConstraint=eastwest;fontSize=12;" vertex="1" parent="v9sFLwM3yu87hSWkuqIm-19">
          <mxGeometry y="26" width="200" height="30" as="geometry" />
        </mxCell>
        <mxCell id="v9sFLwM3yu87hSWkuqIm-21" value="Form Selection" style="text;strokeColor=none;fillColor=none;spacingLeft=4;spacingRight=4;overflow=hidden;rotatable=0;points=[[0,0.5],[1,0.5]];portConstraint=eastwest;fontSize=12;" vertex="1" parent="v9sFLwM3yu87hSWkuqIm-19">
          <mxGeometry y="56" width="200" height="30" as="geometry" />
        </mxCell>
        <mxCell id="v9sFLwM3yu87hSWkuqIm-22" value="User Input " style="text;strokeColor=none;fillColor=none;spacingLeft=4;spacingRight=4;overflow=hidden;rotatable=0;points=[[0,0.5],[1,0.5]];portConstraint=eastwest;fontSize=12;" vertex="1" parent="v9sFLwM3yu87hSWkuqIm-19">
          <mxGeometry y="86" width="200" height="26" as="geometry" />
        </mxCell>
        <mxCell id="v9sFLwM3yu87hSWkuqIm-23" value="Preview (Modal)" style="text;strokeColor=none;fillColor=none;spacingLeft=4;spacingRight=4;overflow=hidden;rotatable=0;points=[[0,0.5],[1,0.5]];portConstraint=eastwest;fontSize=12;" vertex="1" parent="v9sFLwM3yu87hSWkuqIm-19">
          <mxGeometry y="112" width="200" height="26" as="geometry" />
        </mxCell>
        <mxCell id="v9sFLwM3yu87hSWkuqIm-24" value="On submit, pop up thank you and &#xa;redirect to home" style="text;strokeColor=none;fillColor=none;spacingLeft=4;spacingRight=4;overflow=hidden;rotatable=0;points=[[0,0.5],[1,0.5]];portConstraint=eastwest;fontSize=12;" vertex="1" parent="v9sFLwM3yu87hSWkuqIm-19">
          <mxGeometry y="138" width="200" height="42" as="geometry" />
        </mxCell>
        <mxCell id="v9sFLwM3yu87hSWkuqIm-25" style="text;strokeColor=none;fillColor=none;spacingLeft=4;spacingRight=4;overflow=hidden;rotatable=0;points=[[0,0.5],[1,0.5]];portConstraint=eastwest;fontSize=12;" vertex="1" parent="v9sFLwM3yu87hSWkuqIm-19">
          <mxGeometry y="180" width="200" height="36" as="geometry" />
        </mxCell>
        <mxCell id="v9sFLwM3yu87hSWkuqIm-26" value="Tables" style="swimlane;fontStyle=0;childLayout=stackLayout;horizontal=1;startSize=26;horizontalStack=0;resizeParent=1;resizeParentMax=0;resizeLast=0;collapsible=1;marginBottom=0;align=center;fontSize=14;" vertex="1" parent="1">
          <mxGeometry x="635" y="272" width="160" height="176" as="geometry" />
        </mxCell>
        <mxCell id="v9sFLwM3yu87hSWkuqIm-27" value="Users" style="text;strokeColor=none;fillColor=none;spacingLeft=4;spacingRight=4;overflow=hidden;rotatable=0;points=[[0,0.5],[1,0.5]];portConstraint=eastwest;fontSize=12;" vertex="1" parent="v9sFLwM3yu87hSWkuqIm-26">
          <mxGeometry y="26" width="160" height="30" as="geometry" />
        </mxCell>
        <mxCell id="v9sFLwM3yu87hSWkuqIm-31" value="Template Options" style="text;strokeColor=none;fillColor=none;spacingLeft=4;spacingRight=4;overflow=hidden;rotatable=0;points=[[0,0.5],[1,0.5]];portConstraint=eastwest;fontSize=12;" vertex="1" parent="v9sFLwM3yu87hSWkuqIm-26">
          <mxGeometry y="56" width="160" height="30" as="geometry" />
        </mxCell>
        <mxCell id="v9sFLwM3yu87hSWkuqIm-28" value="Templates (Fill in word doc)" style="text;strokeColor=none;fillColor=none;spacingLeft=4;spacingRight=4;overflow=hidden;rotatable=0;points=[[0,0.5],[1,0.5]];portConstraint=eastwest;fontSize=12;" vertex="1" parent="v9sFLwM3yu87hSWkuqIm-26">
          <mxGeometry y="86" width="160" height="30" as="geometry" />
        </mxCell>
        <mxCell id="v9sFLwM3yu87hSWkuqIm-30" value="User Saved Forms/History" style="text;strokeColor=none;fillColor=none;spacingLeft=4;spacingRight=4;overflow=hidden;rotatable=0;points=[[0,0.5],[1,0.5]];portConstraint=eastwest;fontSize=12;" vertex="1" parent="v9sFLwM3yu87hSWkuqIm-26">
          <mxGeometry y="116" width="160" height="30" as="geometry" />
        </mxCell>
        <mxCell id="v9sFLwM3yu87hSWkuqIm-29" value="Tags" style="text;strokeColor=none;fillColor=none;spacingLeft=4;spacingRight=4;overflow=hidden;rotatable=0;points=[[0,0.5],[1,0.5]];portConstraint=eastwest;fontSize=12;" vertex="1" parent="v9sFLwM3yu87hSWkuqIm-26">
          <mxGeometry y="146" width="160" height="30" as="geometry" />
        </mxCell>
        <mxCell id="v9sFLwM3yu87hSWkuqIm-32" value="Routes" style="swimlane;fontStyle=0;childLayout=stackLayout;horizontal=1;startSize=26;horizontalStack=0;resizeParent=1;resizeParentMax=0;resizeLast=0;collapsible=1;marginBottom=0;align=center;fontSize=14;" vertex="1" parent="1">
          <mxGeometry x="345" y="290" width="185" height="116" as="geometry" />
        </mxCell>
        <mxCell id="v9sFLwM3yu87hSWkuqIm-33" value="&#39;/&#39;" style="text;strokeColor=none;fillColor=none;spacingLeft=4;spacingRight=4;overflow=hidden;rotatable=0;points=[[0,0.5],[1,0.5]];portConstraint=eastwest;fontSize=12;" vertex="1" parent="v9sFLwM3yu87hSWkuqIm-32">
          <mxGeometry y="26" width="185" height="30" as="geometry" />
        </mxCell>
        <mxCell id="v9sFLwM3yu87hSWkuqIm-34" value="&#39;User/Template_1&#39;" style="text;strokeColor=none;fillColor=none;spacingLeft=4;spacingRight=4;overflow=hidden;rotatable=0;points=[[0,0.5],[1,0.5]];portConstraint=eastwest;fontSize=12;" vertex="1" parent="v9sFLwM3yu87hSWkuqIm-32">
          <mxGeometry y="56" width="185" height="30" as="geometry" />
        </mxCell>
        <mxCell id="v9sFLwM3yu87hSWkuqIm-35" value="Item 3" style="text;strokeColor=none;fillColor=none;spacingLeft=4;spacingRight=4;overflow=hidden;rotatable=0;points=[[0,0.5],[1,0.5]];portConstraint=eastwest;fontSize=12;" vertex="1" parent="v9sFLwM3yu87hSWkuqIm-32">
          <mxGeometry y="86" width="185" height="30" as="geometry" />
        </mxCell>
      </root>
    </mxGraphModel>
  </diagram>
</mxfile>
